<?xml version="1.0" standalone="no"?>
<!DOCTYPE svg PUBLIC "-//W3C//DTD SVG 20010904//EN"
 "http://www.w3.org/TR/2001/REC-SVG-20010904/DTD/svg10.dtd">
<svg version="1.0" xmlns="http://www.w3.org/2000/svg"
 width="860.000000pt" height="1060.000000pt" viewBox="0 0 860.000000 1060.000000"
 preserveAspectRatio="xMidYMid meet">
<metadata>
Created by potrace 1.16, written by Peter Selinger 2001-2019
</metadata>
<g transform="translate(0.000000,1060.000000) scale(0.100000,-0.100000)"
fill="#000000" stroke="none">
<path d="M6030 10178 c-24 -13 -52 -34 -62 -48 -10 -14 -68 -165 -130 -335
-127 -356 -133 -386 -83 -456 17 -23 47 -51 68 -62 45 -23 122 -25 163 -4 65
34 79 61 193 382 60 171 113 322 116 336 16 66 -37 157 -110 190 -54 25 -102
24 -155 -3z"/>
<path d="M4327 10029 c-47 -25 -88 -86 -94 -141 -6 -54 4 -79 155 -388 112
-229 123 -247 163 -272 33 -22 55 -28 96 -28 64 0 99 16 141 65 71 80 62 122
-88 435 -67 140 -131 267 -141 282 -44 62 -159 86 -232 47z"/>
<path d="M5114 9229 c-658 -39 -1268 -451 -1555 -1054 -96 -202 -105 -265 -49
-343 35 -49 84 -72 150 -72 90 0 143 44 185 155 124 332 397 630 728 797 103
51 287 112 407 134 135 25 392 25 525 0 621 -116 1092 -585 1211 -1206 21
-113 25 -388 6 -490 -7 -36 -29 -123 -49 -194 -33 -120 -35 -133 -24 -175 7
-25 24 -59 39 -75 32 -34 96 -65 135 -66 65 0 146 55 173 120 25 60 73 250 89
355 23 150 21 411 -5 560 -49 285 -139 509 -305 760 l-20 29 32 -24 c24 -17
50 -25 90 -27 57 -4 65 -1 333 127 151 72 285 140 298 153 73 67 77 176 11
251 -38 43 -106 71 -155 63 -34 -6 -380 -163 -537 -245 -90 -46 -120 -94 -115
-182 l3 -60 -52 58 c-29 31 -52 60 -53 64 -1 18 -227 208 -325 273 -348 233
-743 338 -1171 314z"/>
<path d="M4835 8074 c-237 -35 -439 -112 -635 -242 -114 -76 -300 -263 -374
-374 -32 -49 -59 -88 -61 -88 -1 0 -36 16 -78 35 -573 265 -1283 205 -1818
-153 -910 -609 -1108 -1844 -434 -2707 68 -87 217 -237 306 -308 277 -223 636
-365 1004 -396 77 -7 762 -11 1921 -11 2024 0 1826 -8 2010 80 424 204 730
591 830 1050 26 120 27 419 1 540 -116 541 -512 959 -1043 1099 l-41 11 -7
115 c-11 208 -57 387 -141 560 -192 394 -553 674 -995 770 -73 16 -378 29
-445 19z m275 -364 c260 -30 517 -162 677 -347 199 -230 291 -529 253 -816
-15 -116 -9 -156 32 -203 42 -47 70 -60 160 -73 264 -37 471 -140 641 -320
121 -129 215 -297 258 -461 27 -107 36 -295 20 -411 -51 -351 -290 -671 -626
-835 l-89 -44 -1881 3 -1880 2 -105 27 c-398 100 -704 313 -922 643 -109 165
-186 358 -224 560 -28 148 -25 413 5 555 65 307 195 546 415 765 222 220 456
349 764 418 83 18 128 21 307 22 184 0 223 -3 314 -23 176 -40 304 -92 520
-212 116 -65 228 -23 279 104 50 125 129 241 235 345 134 131 277 215 452 266
142 41 256 51 395 35z"/>
<path d="M1645 3415 c-47 -25 -73 -54 -90 -99 -54 -147 -308 -1008 -308 -1046
-1 -30 7 -59 22 -85 75 -135 271 -122 330 22 30 75 311 1022 311 1048 -1 46
-34 109 -75 141 -47 35 -142 45 -190 19z"/>
<path d="M2922 3409 c-27 -14 -51 -36 -67 -63 -25 -44 -492 -1419 -502 -1479
-11 -68 30 -143 98 -177 76 -39 182 -16 229 50 29 40 510 1471 510 1516 0 47
-32 107 -76 140 -50 38 -132 44 -192 13z"/>
<path d="M4134 3411 c-23 -10 -53 -34 -66 -52 -15 -20 -160 -409 -358 -957
-307 -852 -332 -926 -328 -972 9 -90 86 -160 177 -160 65 0 126 33 155 83 13
23 171 448 350 945 240 666 326 915 326 947 0 80 -33 133 -105 166 -51 24 -99
24 -151 0z"/>
<path d="M6775 3406 c-16 -8 -42 -26 -57 -42 -19 -21 -184 -420 -568 -1379
-298 -742 -544 -1364 -547 -1381 -16 -99 78 -204 182 -204 49 0 119 33 144 68
10 15 262 633 560 1375 578 1440 565 1402 527 1475 -19 36 -65 78 -99 91 -38
15 -106 13 -142 -3z"/>
<path d="M5394 3394 c-17 -8 -43 -27 -57 -42 -17 -18 -175 -395 -477 -1142
-372 -917 -452 -1123 -452 -1162 -1 -160 204 -240 314 -122 18 20 164 368 477
1142 482 1188 474 1168 437 1240 -19 36 -65 78 -99 91 -40 16 -107 13 -143 -5z"/>
</g>
</svg>
